{"asset":{"version":"2.0","generator":"io district generator"},"scene":0,"scenes":[{"nodes":[0]}],"nodes":[{"mesh":0}],"meshes":[{"primitives":[{"attributes":{"POSITION":0,"COLOR_0":1}}]}],"buffers":[{"byteLength":7560,"uri":"data:application/octet-stream;base64,"}],"bufferViews":[{"buffer":0,"byteOffset":0,"byteLength":3240},{"buffer":0,"byteOffset":3240,"byteLength":4320}],"accessors":[{"bufferView":0,"componentType":5126,"count":270,"type":"VEC3","min":[-3.8,0.0,-3.3],"max":[3.8,6.1,3.3]},{"bufferView":1,"componentType":5126,"count":270,"type":"VEC4"}]}
