{"asset":{"version":"2.0","generator":"io district generator"},"scene":0,"scenes":[{"nodes":[0]}],"nodes":[{"mesh":0}],"meshes":[{"primitives":[{"attributes":{"POSITION":0,"COLOR_0":1}}]}],"buffers":[{"byteLength":3696,"uri":"data:application/octet-stream;base64,"}],"bufferViews":[{"buffer":0,"byteOffset":0,"byteLength":1584},{"buffer":0,"byteOffset":1584,"byteLength":2112}],"accessors":[{"bufferView":0,"componentType":5126,"count":132,"type":"VEC3","min":[294.4,44.253499999999995,80.0],"max":[299.6,44.253499999999995,102.0]},{"bufferView":1,"componentType":5126,"count":132,"type":"VEC4"}]}
