{"asset":{"version":"2.0","generator":"io district generator"},"scene":0,"scenes":[{"nodes":[0]}],"nodes":[{"mesh":0}],"meshes":[{"primitives":[{"attributes":{"POSITION":0,"COLOR_0":1}}]}],"buffers":[{"byteLength":4200,"uri":"data:application/octet-stream;base64,"}],"bufferViews":[{"buffer":0,"byteOffset":0,"byteLength":1800},{"buffer":0,"byteOffset":1800,"byteLength":2400}],"accessors":[{"bufferView":0,"componentType":5126,"count":150,"type":"VEC3","min":[-5.6305182517107,19.370001883072064,127.47761090744119],"max":[32.82018538349467,21.88021237873755,140.6366879232887]},{"bufferView":1,"componentType":5126,"count":150,"type":"VEC4"}]}
