{"asset":{"version":"2.0","generator":"io district generator"},"scene":0,"scenes":[{"nodes":[0]}],"nodes":[{"mesh":0}],"meshes":[{"primitives":[{"attributes":{"POSITION":0,"COLOR_0":1}}]}],"buffers":[{"byteLength":4200,"uri":"data:application/octet-stream;base64,"}],"bufferViews":[{"buffer":0,"byteOffset":0,"byteLength":1800},{"buffer":0,"byteOffset":1800,"byteLength":2400}],"accessors":[{"bufferView":0,"componentType":5126,"count":150,"type":"VEC3","min":[126.37751228828364,56.92930383198559,-100.52524364321472],"max":[137.54639335438625,57.540324015048874,-64.38732590687626]},{"bufferView":1,"componentType":5126,"count":150,"type":"VEC4"}]}
