{"asset":{"version":"2.0","generator":"io district generator"},"scene":0,"scenes":[{"nodes":[0]}],"nodes":[{"mesh":0}],"meshes":[{"primitives":[{"attributes":{"POSITION":0,"COLOR_0":1}}]}],"buffers":[{"byteLength":25200,"uri":"data:application/octet-stream;base64,"}],"bufferViews":[{"buffer":0,"byteOffset":0,"byteLength":10800},{"buffer":0,"byteOffset":10800,"byteLength":14400}],"accessors":[{"bufferView":0,"componentType":5126,"count":900,"type":"VEC3","min":[195.0,44.253499999999995,77.4],"max":[345.0,44.253499999999995,82.6]},{"bufferView":1,"componentType":5126,"count":900,"type":"VEC4"}]}
