{"asset":{"version":"2.0","generator":"io district generator"},"scene":0,"scenes":[{"nodes":[0]}],"nodes":[{"mesh":0}],"meshes":[{"primitives":[{"attributes":{"POSITION":0,"COLOR_0":1}}]}],"buffers":[{"byteLength":4200,"uri":"data:application/octet-stream;base64,"}],"bufferViews":[{"buffer":0,"byteOffset":0,"byteLength":1800},{"buffer":0,"byteOffset":1800,"byteLength":2400}],"accessors":[{"bufferView":0,"componentType":5126,"count":150,"type":"VEC3","min":[-115.02663950065686,8.590931245382105,-120.49306152324768],"max":[-90.658532328913,18.64940742957762,-82.24035050072233]},{"bufferView":1,"componentType":5126,"count":150,"type":"VEC4"}]}
