{"asset":{"version":"2.0","generator":"io district generator"},"scene":0,"scenes":[{"nodes":[0]}],"nodes":[{"mesh":0}],"meshes":[{"primitives":[{"attributes":{"POSITION":0,"COLOR_0":1}}]}],"buffers":[{"byteLength":4200,"uri":"data:application/octet-stream;base64,"}],"bufferViews":[{"buffer":0,"byteOffset":0,"byteLength":1800},{"buffer":0,"byteOffset":1800,"byteLength":2400}],"accessors":[{"bufferView":0,"componentType":5126,"count":150,"type":"VEC3","min":[87.13512390783477,29.91131,-252.87684649418108],"max":[111.41602525511603,29.98735975170153,-223.17847820326156]},{"bufferView":1,"componentType":5126,"count":150,"type":"VEC4"}]}
