{"asset":{"version":"2.0","generator":"io district generator"},"scene":0,"scenes":[{"nodes":[0]}],"nodes":[{"mesh":0}],"meshes":[{"primitives":[{"attributes":{"POSITION":0,"COLOR_0":1}}]}],"buffers":[{"byteLength":4200,"uri":"data:application/octet-stream;base64,"}],"bufferViews":[{"buffer":0,"byteOffset":0,"byteLength":1800},{"buffer":0,"byteOffset":1800,"byteLength":2400}],"accessors":[{"bufferView":0,"componentType":5126,"count":150,"type":"VEC3","min":[139.27659511986298,44.268433378821804,-3.4857688592223024],"max":[162.66246449977427,47.948383799574884,26.404297819778236]},{"bufferView":1,"componentType":5126,"count":150,"type":"VEC4"}]}
