{"asset":{"version":"2.0","generator":"io district generator"},"scene":0,"scenes":[{"nodes":[0]}],"nodes":[{"mesh":0}],"meshes":[{"primitives":[{"attributes":{"POSITION":0,"COLOR_0":1}}]}],"buffers":[{"byteLength":3528,"uri":"data:application/octet-stream;base64,"}],"bufferViews":[{"buffer":0,"byteOffset":0,"byteLength":1512},{"buffer":0,"byteOffset":1512,"byteLength":2016}],"accessors":[{"bufferView":0,"componentType":5126,"count":126,"type":"VEC3","min":[-299.6,22.685229999999997,159.0],"max":[-294.4,22.685229999999997,180.0]},{"bufferView":1,"componentType":5126,"count":126,"type":"VEC4"}]}
