{"asset":{"version":"2.0","generator":"io district generator"},"scene":0,"scenes":[{"nodes":[0]}],"nodes":[{"mesh":0}],"meshes":[{"primitives":[{"attributes":{"POSITION":0,"COLOR_0":1,"NORMAL":2}}]}],"buffers":[{"byteLength":24000,"uri":"data:application/octet-stream;base64,"}],"bufferViews":[{"buffer":0,"byteOffset":0,"byteLength":7200},{"buffer":0,"byteOffset":7200,"byteLength":9600},{"buffer":0,"byteOffset":16800,"byteLength":7200}],"accessors":[{"bufferView":0,"componentType":5126,"count":600,"type":"VEC3","min":[0,25.70638,-50],"max":[50,29.76131,0]},{"bufferView":1,"componentType":5126,"count":600,"type":"VEC4"},{"bufferView":2,"componentType":5126,"count":600,"type":"VEC3"}]}
