{"asset":{"version":"2.0","generator":"io district generator"},"scene":0,"scenes":[{"nodes":[0]}],"nodes":[{"mesh":0}],"meshes":[{"primitives":[{"attributes":{"POSITION":0,"COLOR_0":1}}]}],"buffers":[{"byteLength":7728,"uri":"data:application/octet-stream;base64,"}],"bufferViews":[{"buffer":0,"byteOffset":0,"byteLength":3312},{"buffer":0,"byteOffset":3312,"byteLength":4416}],"accessors":[{"bufferView":0,"componentType":5126,"count":276,"type":"VEC3","min":[-2.4,0,-2.2825356391083687],"max":[2.4,9,2.2825356391083687]},{"bufferView":1,"componentType":5126,"count":276,"type":"VEC4"}]}
