{"asset":{"version":"2.0","generator":"io district generator"},"scene":0,"scenes":[{"nodes":[0]}],"nodes":[{"mesh":0}],"meshes":[{"primitives":[{"attributes":{"POSITION":0,"COLOR_0":1}}]}],"buffers":[{"byteLength":18144,"uri":"data:application/octet-stream;base64,"}],"bufferViews":[{"buffer":0,"byteOffset":0,"byteLength":7776},{"buffer":0,"byteOffset":7776,"byteLength":10368}],"accessors":[{"bufferView":0,"componentType":5126,"count":648,"type":"VEC3","min":[-0.42,0.0,-0.29482752005149765],"max":[0.42,1.85,0.29482752005149765]},{"bufferView":1,"componentType":5126,"count":648,"type":"VEC4"}]}
