{"asset":{"version":"2.0","generator":"io district generator"},"scene":0,"scenes":[{"nodes":[0]}],"nodes":[{"mesh":0}],"meshes":[{"primitives":[{"attributes":{"POSITION":0,"COLOR_0":1}}]}],"buffers":[{"byteLength":12096,"uri":"data:application/octet-stream;base64,"}],"bufferViews":[{"buffer":0,"byteOffset":0,"byteLength":5184},{"buffer":0,"byteOffset":5184,"byteLength":6912}],"accessors":[{"bufferView":0,"componentType":5126,"count":432,"type":"VEC3","min":[-0.355,0,-0.355],"max":[0.355,0.86,0.355]},{"bufferView":1,"componentType":5126,"count":432,"type":"VEC4"}]}
