{"asset":{"version":"2.0","generator":"io district generator"},"scene":0,"scenes":[{"nodes":[0]}],"nodes":[{"mesh":0}],"meshes":[{"primitives":[{"attributes":{"POSITION":0,"COLOR_0":1}}]}],"buffers":[{"byteLength":11424,"uri":"data:application/octet-stream;base64,"}],"bufferViews":[{"buffer":0,"byteOffset":0,"byteLength":4896},{"buffer":0,"byteOffset":4896,"byteLength":6528}],"accessors":[{"bufferView":0,"componentType":5126,"count":408,"type":"VEC3","min":[-1.8,0,-1.8],"max":[1.8,7.2,1.8]},{"bufferView":1,"componentType":5126,"count":408,"type":"VEC4"}]}
